<svg version="1" xmlns="http://www.w3.org/2000/svg" width="800" height="800" viewBox="0 0 600.000000 600.000000"><path d="M578 7.7c-5.6.9-18.3 5.7-26.6 9.9-14 7.2-43.9 27.5-57.4 39-1.4 1.2-5.8 4.9-9.7 8.2-4 3.3-10.1 8.4-13.5 11.5-3.5 3-8.5 7.4-11.3 9.7-27.5 23.4-99.7 95-141.7 140.5-3.1 3.3-7.1 7.6-8.9 9.6-3.6 3.8-19.1 20.6-22.4 24.3-4.4 4.9-18.1 20-19 21-.5.6-5.7 6.5-11.4 13.1s-10.9 12.5-11.5 13c-.6.6-3.5 3.9-6.5 7.5s-6.2 7.2-7 8.1c-1.4 1.4-6.2 6.9-12.8 14.6-1 1.2-6.7 8-12.7 15.2L194.7 366l-10.1-5.4c-26-13.9-60.1-30.5-81.6-39.7-6.3-2.8-12.4-5.4-13.5-5.9-6.2-2.8-29.3-10.5-38.9-13-16.7-4.3-29.1-5.3-37.6-3-5.9 1.6-11.6 7.4-12.5 12.9l-.7 4.1 27.4 27.3c15.1 14.9 30.5 30.8 34.4 35.2 3.8 4.3 8.5 9.7 10.4 12 1.9 2.2 3.8 4.2 4.1 4.5.3.3 5.4 6.6 11.3 14 5.8 7.4 11.2 14.2 11.9 15 2.4 2.9 24.4 33.6 29.4 41 17.1 25.4 38.4 59.4 55.1 88 8.3 14.3 10.8 18.7 18.7 32.8 2.2 4 4.3 7.2 4.6 7.2.4 0 3.5-6.9 6.9-15.3 6.7-16.2 17.3-41.3 19.5-46.2.8-1.7 4.1-8.9 7.3-16 3.2-7.2 7.6-16.8 9.7-21.5 5.4-11.8 31-62.9 39-78 45.9-85.8 99.2-165.7 156.4-234.5 6.9-8.3 12.8-15.2 13.2-15.5.3-.3 3.7-4.1 7.5-8.5s8.3-9.6 10.1-11.5c1.7-1.9 4.1-4.6 5.3-5.9 11.7-13.6 44.9-47.3 82.4-83.6 24.6-23.8 34-34.4 35.2-39.8 1.4-6.7-9-11.1-21.6-9z"/></svg>